<?xml version="1.0" encoding="UTF-8"?>
<svg width="3440px" height="2227px" viewBox="0 0 3440 2227" version="1.1" xmlns="http://www.w3.org/2000/svg" xmlns:xlink="http://www.w3.org/1999/xlink">
    <!-- Generator: Sketch 52.6 (67491) - http://www.bohemiancoding.com/sketch -->
    <title>Final 96A097 Colour</title>
    <desc>Created with Sketch.</desc>
    <g id="Final-96A097-Colour" stroke="none" stroke-width="1" fill="none" fill-rule="evenodd">
        <path d="M1101.92,900.4 C1164.32,900.4 1226.72,847.6 1226.72,778.8 C1226.72,717.2 1189.12,687.6 1167.52,675.6 C1153.12,667.6 1124.32,655.6 1084.32,655.6 C1049.92,655.6 1038.72,674 1038.72,684.4 L1038.72,843.6 C1038.72,888.4 1061.12,900.4 1101.92,900.4 Z M1014.72,930 C973.12,930 957.12,934 910.72,934 C897.12,934 887.52,931.6 887.52,925.2 C887.52,918 895.52,914 913.92,910.8 C953.92,903.6 976.32,889.2 976.32,850.8 L976.32,490.8 C976.32,452.4 961.92,435.6 922.72,432.4 C904.32,430.8 896.32,423.6 896.32,416.4 C896.32,410 905.92,407.6 919.52,407.6 C962.72,407.6 969.92,408.4 1002.72,408.4 C1033.12,408.4 1045.12,404.4 1091.52,404.4 C1208.32,404.4 1269.12,436.4 1269.12,523.6 C1269.12,559.6 1253.92,588.4 1241.92,600.4 C1225.12,616.4 1214.72,624.4 1188.32,634.8 C1184.32,636.4 1183.52,641.2 1188.32,642.8 C1236.32,658 1301.92,682 1301.92,774.8 C1301.92,862.8 1251.52,889.2 1218.72,906 C1185.12,922.8 1143.52,933.2 1090.72,933.2 C1076.32,933.2 1046.72,930 1014.72,930 Z M1075.52,633.2 C1096.32,633.2 1132.32,629.2 1164.32,610 C1175.52,603.6 1200.32,580.4 1200.32,534 C1200.32,488.4 1181.92,428.4 1091.52,428.4 C1047.52,428.4 1038.72,440.4 1038.72,464.4 L1038.72,603.6 C1038.72,631.6 1062.72,633.2 1075.52,633.2 Z M2408.48,410 C2446.88,410 2451.68,407.6 2500.48,407.6 C2514.08,407.6 2523.68,410 2523.68,416.4 C2523.68,423.6 2515.68,429.2 2497.28,432.4 C2457.28,439.6 2447.68,449.2 2446.88,475.6 C2446.08,494.8 2445.28,879.6 2445.28,923.6 C2445.28,940.4 2436.48,943.6 2428.48,943.6 C2418.88,943.6 2389.28,928.4 2363.68,893.2 C2349.28,873.2 2097.28,565.2 2078.88,542.8 C2070.88,533.2 2066.08,530 2062.08,530 C2056.48,530 2054.88,540.4 2054.88,546.8 C2053.28,626 2050.88,748.4 2050.88,846.8 C2050.88,875.6 2062.08,903.6 2102.08,910.8 C2120.48,914 2128.48,918 2128.48,925.2 C2128.48,931.6 2118.88,934 2105.28,934 C2062.08,934 2059.68,930 2030.08,930 C2001.28,930 2000.48,934 1957.28,934 C1943.68,934 1934.08,931.6 1934.08,925.2 C1934.08,918 1942.08,914.8 1960.48,910 C1990.88,902 2003.68,877.2 2006.88,844.4 C2013.28,784.4 2021.28,656.4 2021.28,524.4 C2021.28,467.6 1989.28,449.2 1942.08,434 C1937.28,432.4 1917.28,424.4 1917.28,414.8 C1917.28,405.2 1930.08,403.6 1935.68,403.6 C1998.08,405.2 2001.28,407.6 2058.88,407.6 C2068.48,407.6 2072.48,414 2078.08,421.2 C2093.28,442.8 2366.88,786 2382.88,805.2 C2386.88,810 2396.48,821.2 2402.88,821.2 C2406.88,821.2 2410.08,816.4 2410.88,804.4 C2411.68,778.8 2412.48,638 2412.48,548.4 L2412.48,478.8 C2411.68,458 2383.68,438 2366.08,434.8 C2347.68,431.6 2339.68,426 2339.68,418.8 C2339.68,412.4 2349.28,410 2362.88,410 L2408.48,410 Z" id="BON" fill="#96A097"></path>
        <path d="M1370.72,674 C1370.72,529.2 1467.52,398.8 1646.72,398.8 C1785.92,398.8 1909.12,504.4 1909.12,662 C1909.12,806 1815.52,941.2 1640.32,941.2 C1498.72,941.2 1370.72,826 1370.72,674 Z M1634.72,430 C1516.32,430 1448.32,538 1448.32,650 C1448.32,786.8 1532.32,910 1650.72,910 C1770.72,910 1831.52,822.8 1831.52,686 C1831.52,534 1762.72,430 1634.72,430 Z" id="Combined-Shape" fill="#B27676"></path>
        <path d="M706.36,988 C737.56,988 776.76,985.6 797.56,985.6 C811.16,985.6 820.76,988 820.76,994.4 C820.76,1001.6 812.76,1006.4 794.36,1010.4 C755.16,1019.2 727.96,1051.2 715.96,1080 L565.56,1444.8 C561.56,1455.2 542.36,1520 531.16,1520 C527.16,1520 515.16,1485.6 507.16,1463.2 L360.76,1070.4 C349.56,1040.8 331.96,1020 304.76,1012 C287.16,1006.4 278.36,1001.6 278.36,994.4 C278.36,988 287.96,985.6 301.56,985.6 C326.36,985.6 362.36,988 399.16,988 C431.16,988 464.76,986.4 480.76,986.4 C494.36,986.4 503.96,988.8 503.96,995.2 C503.96,1002.4 495.96,1008 477.56,1011.2 C453.56,1016 427.16,1029.6 427.16,1044 C427.16,1050.4 431.96,1074.4 434.36,1081.6 L535.96,1350.4 C541.56,1365.6 546.36,1372.8 550.36,1372.8 C554.36,1372.8 558.36,1365.6 564.76,1350.4 L677.56,1070.4 C679.16,1067.2 683.96,1048 683.96,1044.8 C683.96,1032 649.56,1017.6 630.36,1012 C619.16,1008.8 603.96,1003.2 603.96,996 C603.96,989.6 613.56,987.2 627.16,987.2 C647.96,987.2 675.96,988 706.36,988 Z M936.28,1068 C936.28,1030.4 922.68,1017.6 882.68,1010.4 C864.28,1007.2 856.28,1001.6 856.28,994.4 C856.28,988 865.88,985.6 879.48,985.6 C922.68,985.6 936.28,988 973.08,988 C1007.48,988 1017.08,985.6 1060.28,985.6 C1073.88,985.6 1083.48,988 1083.48,994.4 C1083.48,1001.6 1075.48,1007.2 1057.08,1010.4 C1017.08,1017.6 1000.28,1030.4 1000.28,1068 L1000.28,1429.6 C1000.28,1467.2 1023.48,1481.6 1063.48,1488.8 C1081.88,1492 1089.88,1496 1089.88,1503.2 C1089.88,1509.6 1080.28,1512 1066.68,1512 C1023.48,1512 1009.88,1508 973.08,1508 C933.08,1508 913.88,1512 870.68,1512 C857.08,1512 847.48,1509.6 847.48,1503.2 C847.48,1496 855.48,1492 873.88,1488.8 C913.88,1481.6 936.28,1467.2 936.28,1429.6 L936.28,1068 Z M1532.28,988 C1563.48,988 1602.68,985.6 1623.48,985.6 C1637.08,985.6 1646.68,988 1646.68,994.4 C1646.68,1001.6 1638.68,1006.4 1620.28,1010.4 C1581.08,1019.2 1553.88,1051.2 1541.88,1080 L1391.48,1444.8 C1387.48,1455.2 1368.28,1520 1357.08,1520 C1353.08,1520 1341.08,1485.6 1333.08,1463.2 L1186.68,1070.4 C1175.48,1040.8 1157.88,1020 1130.68,1012 C1113.08,1006.4 1104.28,1001.6 1104.28,994.4 C1104.28,988 1113.88,985.6 1127.48,985.6 C1152.28,985.6 1188.28,988 1225.08,988 C1257.08,988 1290.68,986.4 1306.68,986.4 C1320.28,986.4 1329.88,988.8 1329.88,995.2 C1329.88,1002.4 1321.88,1008 1303.48,1011.2 C1279.48,1016 1253.08,1029.6 1253.08,1044 C1253.08,1050.4 1257.88,1074.4 1260.28,1081.6 L1361.88,1350.4 C1367.48,1365.6 1372.28,1372.8 1376.28,1372.8 C1380.28,1372.8 1384.28,1365.6 1390.68,1350.4 L1503.48,1070.4 C1505.08,1067.2 1509.88,1048 1509.88,1044.8 C1509.88,1032 1475.48,1017.6 1456.28,1012 C1445.08,1008.8 1429.88,1003.2 1429.88,996 C1429.88,989.6 1439.48,987.2 1453.08,987.2 C1473.88,987.2 1501.88,988 1532.28,988 Z M1718.68,1074.4 L1646.68,1266.4 C1645.88,1268.8 1645.08,1271.2 1645.08,1272.8 C1645.08,1278.4 1651.48,1278.4 1661.88,1278.4 L1785.88,1278.4 C1793.88,1278.4 1797.08,1278.4 1797.08,1274.4 C1797.08,1272.8 1796.28,1269.6 1795.48,1266.4 L1732.28,1075.2 C1729.08,1065.6 1727.48,1060.8 1725.08,1060.8 C1723.48,1060.8 1721.88,1065.6 1718.68,1074.4 Z M1986.68,1512 C1964.28,1512 1911.48,1507.2 1875.48,1507.2 C1844.28,1507.2 1810.68,1508 1791.48,1508 C1777.88,1508 1768.28,1504.8 1768.28,1498.4 C1768.28,1491.2 1780.28,1485.6 1794.68,1483.2 C1829.88,1477.6 1843.48,1464.8 1843.48,1447.2 C1843.48,1424 1825.08,1361.6 1813.08,1321.6 C1810.68,1313.6 1805.88,1312.8 1791.48,1312.8 L1638.68,1312.8 C1633.88,1312.8 1629.08,1316 1625.08,1327.2 C1617.88,1348 1593.08,1428 1593.08,1438.4 C1593.08,1461.6 1613.88,1477.6 1639.48,1484 C1657.88,1488.8 1665.88,1492.8 1665.88,1500 C1665.88,1506.4 1656.28,1508.8 1642.68,1508.8 C1628.28,1508.8 1599.48,1507.2 1569.88,1507.2 C1534.68,1507.2 1500.28,1512 1473.88,1512 C1460.28,1512 1450.68,1508 1450.68,1501.6 C1450.68,1494.4 1459.48,1488.8 1477.08,1483.2 C1504.28,1475.2 1528.28,1461.6 1545.88,1421.6 C1605.88,1284.8 1641.88,1193.6 1695.48,1045.6 C1707.48,1012 1705.08,1000 1706.68,999.2 C1716.28,996 1725.88,993.6 1735.48,987.2 C1746.68,980 1748.28,959.2 1752.28,959.2 C1756.28,959.2 1757.88,971.2 1760.28,978.4 C1811.48,1140.8 1876.28,1329.6 1902.68,1405.6 C1925.08,1469.6 1951.48,1480 1983.48,1485.6 C2001.88,1488.8 2009.88,1496.8 2009.88,1504 C2009.88,1510.4 2000.28,1512 1986.68,1512 Z M2500.44,988 C2538.84,988 2543.64,985.6 2592.44,985.6 C2606.04,985.6 2615.64,988 2615.64,994.4 C2615.64,1001.6 2607.64,1007.2 2589.24,1010.4 C2549.24,1017.6 2539.64,1027.2 2538.84,1053.6 C2538.04,1072.8 2537.24,1457.6 2537.24,1501.6 C2537.24,1518.4 2528.44,1521.6 2520.44,1521.6 C2510.84,1521.6 2481.24,1506.4 2455.64,1471.2 C2441.24,1451.2 2189.24,1143.2 2170.84,1120.8 C2162.84,1111.2 2158.04,1108 2154.04,1108 C2148.44,1108 2146.84,1118.4 2146.84,1124.8 C2145.24,1204 2142.84,1326.4 2142.84,1424.8 C2142.84,1453.6 2154.04,1481.6 2194.04,1488.8 C2212.44,1492 2220.44,1496 2220.44,1503.2 C2220.44,1509.6 2210.84,1512 2197.24,1512 C2154.04,1512 2151.64,1508 2122.04,1508 C2093.24,1508 2092.44,1512 2049.24,1512 C2035.64,1512 2026.04,1509.6 2026.04,1503.2 C2026.04,1496 2034.04,1492.8 2052.44,1488 C2082.84,1480 2095.64,1455.2 2098.84,1422.4 C2105.24,1362.4 2113.24,1234.4 2113.24,1102.4 C2113.24,1045.6 2081.24,1027.2 2034.04,1012 C2029.24,1010.4 2009.24,1002.4 2009.24,992.8 C2009.24,983.2 2022.04,981.6 2027.64,981.6 C2090.04,983.2 2093.24,985.6 2150.84,985.6 C2160.44,985.6 2164.44,992 2170.04,999.2 C2185.24,1020.8 2458.84,1364 2474.84,1383.2 C2478.84,1388 2488.44,1399.2 2494.84,1399.2 C2498.84,1399.2 2502.04,1394.4 2502.84,1382.4 C2503.64,1356.8 2504.44,1216 2504.44,1126.4 L2504.44,1056.8 C2503.64,1036 2475.64,1016 2458.04,1012.8 C2439.64,1009.6 2431.64,1004 2431.64,996.8 C2431.64,990.4 2441.24,988 2454.84,988 L2500.44,988 Z M2924.44,1426.4 C2924.44,1464.8 2947.64,1481.6 2987.64,1488.8 C3006.04,1492 3014.04,1496 3014.04,1503.2 C3014.04,1509.6 3004.44,1512 2990.84,1512 C2947.64,1512 2934.04,1508 2897.24,1508 C2857.24,1508 2838.04,1512 2794.84,1512 C2781.24,1512 2771.64,1509.6 2771.64,1503.2 C2771.64,1496 2779.64,1492 2798.04,1488.8 C2838.04,1481.6 2860.44,1464.8 2860.44,1426.4 L2860.44,1062.4 C2860.44,1048 2858.84,1030.4 2846.04,1028 C2830.84,1024.8 2814.04,1024.8 2786.84,1024.8 L2749.24,1024.8 C2723.64,1024.8 2694.84,1035.2 2683.64,1056 C2678.84,1064.8 2662.84,1086.4 2650.84,1086.4 C2646.84,1086.4 2645.24,1081.6 2645.24,1076 C2645.24,1071.2 2646.84,1064.8 2649.24,1060 C2663.64,1029.6 2669.24,1004.8 2674.04,971.2 C2676.44,953.6 2683.64,952.8 2687.64,952.8 C2691.64,952.8 2702.84,969.6 2707.64,978.4 C2714.04,989.6 2741.24,994.4 2763.64,994.4 L3068.44,994.4 C3091.64,994.4 3106.84,988.8 3114.84,983.2 C3130.84,972 3142.84,954.4 3154.84,954.4 C3158.04,954.4 3160.44,964.8 3160.44,972.8 C3160.44,975.2 3159.64,978.4 3159.64,980 C3152.44,1009.6 3146.84,1038.4 3146.84,1059.2 L3146.84,1068.8 C3146.84,1078.4 3142.04,1094.4 3134.04,1094.4 C3126.04,1094.4 3122.84,1082.4 3118.84,1061.6 C3114.84,1039.2 3096.44,1024.8 3045.24,1024.8 L2969.24,1024.8 C2928.44,1024.8 2924.44,1028.8 2924.44,1061.6 L2924.44,1426.4 Z" id="VIVANT" fill="#96A097"></path>
        <path d="M958.039959,1862.45519 C1009.55324,1862.45519 1104.0776,1846.43243 1104.0776,1834.91607 C1104.0776,1830.40967 1090.57412,1823.90043 1090.57412,1812.38407 L1090.57412,1759.80939 C1090.57412,1753.80085 1106.07811,1742.2845 1113.07992,1739.28023 C1119.58159,1736.77667 1125.08301,1730.76814 1125.08301,1727.76387 C1125.08301,1721.75533 1121.58211,1717.74964 1115.08043,1717.74964 C1102.57721,1717.74964 1088.07347,1719.75249 1071.56922,1719.75249 C1063.50528,1719.75249 1050.8299,1719.30207 1038.34351,1718.82843 L1036.71632,1718.76655 C1023.44278,1718.26073 1010.62052,1717.74964 1004.05182,1717.74964 C999.050528,1717.74964 993.549111,1720.2532 993.549111,1725.76102 C993.549111,1733.27169 1002.0513,1734.77383 1017.05517,1740.28165 C1028.058,1744.28734 1044.06213,1754.80228 1044.06213,1760.81081 L1044.06213,1821.39687 C1044.06213,1829.90896 1006.05233,1840.4239 979.545501,1840.4239 C907.52694,1840.4239 859.014437,1771.32575 859.014437,1698.72262 C859.014437,1630.62589 906.026553,1568.5377 972.543697,1568.5377 C1011.55375,1568.5377 1049.06342,1581.05548 1067.56819,1616.10526 C1074.56999,1629.62447 1080.07141,1636.13371 1084.07244,1636.13371 C1088.5736,1636.13371 1092.0745,1633.12945 1092.0745,1628.62304 C1092.0745,1623.34673 1091.50782,1616.15563 1090.69435,1608.83794 L1090.55254,1607.58257 L1090.40625,1606.32673 C1089.07061,1595.02798 1087.23455,1583.91438 1086.07296,1579.55334 C1084.57257,1574.04552 1083.07218,1564.53201 1077.57077,1563.02987 C1044.06213,1554.01707 1036.06007,1546.00569 989.548079,1546.00569 C888.522042,1546.00569 803,1616.10526 803,1716.24751 C803,1795.8606 878.519464,1862.45519 958.039959,1862.45519 Z M1377.54808,1848.43528 C1394.05233,1848.43528 1412.05697,1851.43954 1423.55994,1851.43954 C1433.06239,1851.43954 1438.06368,1848.93599 1438.06368,1843.42817 C1438.06368,1838.42105 1433.56252,1833.41394 1418.05852,1827.90612 C1393.5522,1818.89331 1388.05079,1805.37411 1373.54705,1764.8165 L1307.53003,1578.05121 C1300.52823,1558.52347 1297.52746,1542 1289.02526,1542 C1286.02449,1542 1277.02217,1556.01991 1267.51972,1557.02134 C1262.0183,1557.52205 1262.0183,1564.03129 1253.51611,1585.56188 L1176.99639,1797.36273 C1169.49446,1817.89189 1169.99459,1820.39545 1153.49033,1827.90612 C1151.19808,1828.94927 1148.66704,1829.88375 1146.09621,1830.77749 L1144.93732,1831.17715 L1144.16373,1831.44122 L1143.00485,1831.83477 L1142.23499,1832.09603 C1133.78408,1834.96693 1125.98324,1837.76387 1125.98324,1842.92745 C1125.98324,1848.43528 1132.98505,1851.43954 1142.4875,1851.43954 C1149.98943,1851.43954 1161.49239,1848.43528 1173.99562,1848.43528 C1183.49807,1848.43528 1205.50374,1851.43954 1215.00619,1851.43954 C1227.50941,1851.43954 1232.5107,1848.43528 1232.5107,1842.92745 C1232.5107,1837.92034 1227.00928,1832.41252 1214.00593,1828.90754 C1199.50219,1824.90185 1200.00232,1816.89047 1203.00309,1807.87767 L1222.00799,1753.30014 C1224.00851,1748.29303 1227.50941,1747.79232 1230.01005,1747.79232 L1313.53158,1747.79232 C1317.53261,1747.79232 1320.03326,1749.29445 1321.53364,1753.80085 L1336.03738,1801.36842 L1336.18548,1801.88033 C1336.28282,1802.22239 1336.37721,1802.56598 1336.46751,1802.91098 L1336.59977,1803.42952 C1338.57644,1811.39627 1338.09791,1820.07499 1321.53364,1827.90612 C1319.56471,1828.80213 1317.43563,1829.61797 1315.26677,1830.39668 L1314.49983,1830.67004 C1314.24376,1830.7607 1313.98734,1830.85091 1313.73076,1830.94075 L1312.96075,1831.20921 L1312.19095,1831.47585 C1311.93452,1831.56447 1311.67833,1831.65286 1311.42256,1831.74108 L1310.65674,1832.00534 C1302.25122,1834.90831 1294.52668,1837.70952 1294.52668,1842.92745 C1294.52668,1848.43528 1304.02913,1851.43954 1310.53081,1851.43954 C1325.53467,1851.43954 1344.53957,1848.43528 1377.54808,1848.43528 Z M1300.82546,1724.75899 L1239.5125,1724.7596 C1230.51018,1724.7596 1232.01057,1722.25605 1235.01134,1714.24467 L1270.02037,1614.60313 C1272.02088,1609.59602 1274.0214,1608.09388 1275.52178,1613.101 L1306.02965,1706.734 C1310.98092,1722.59653 1310.54026,1724.71814 1300.82546,1724.75899 Z M1780.0018,1894 C1797.50632,1894 1813.51044,1888.49218 1813.51044,1879.47937 C1813.51044,1875.47368 1810.50967,1871.46799 1805.00825,1870.96728 C1794.00541,1869.96586 1786.50348,1869.96586 1773,1861.95448 C1759.49652,1853.9431 1741.41716,1836.52795 1714.98505,1808.37838 C1688.55294,1780.22881 1663.56752,1747.32304 1650.11833,1727.26316 C1643.61665,1717.74964 1637.61511,1706.734 1637.61511,1702.2276 C1637.61511,1697.72119 1639.61562,1698.22191 1646.1173,1693.21479 C1669.62336,1676.19061 1685.62748,1655.16074 1685.62748,1623.11522 C1685.62748,1572.54339 1629.61304,1551.51351 1579.10003,1551.51351 C1534.58855,1551.51351 1514.08327,1553.01565 1470.07193,1556.52063 C1459.56922,1557.02134 1452.56741,1559.52489 1452.56741,1565.53343 C1452.56741,1570.03983 1456.06832,1572.54339 1460.56948,1574.04552 C1489.07682,1582.0569 1501.58005,1582.55761 1501.58005,1611.09815 L1501.58005,1785.84637 C1501.58005,1804.37269 1495.07837,1820.39545 1478.07399,1827.90612 C1475.78173,1828.94927 1473.2507,1829.88375 1470.67987,1830.77749 L1469.52098,1831.17715 L1468.74739,1831.44122 L1467.5885,1831.83477 L1466.81865,1832.09603 C1458.36774,1834.96693 1450.5669,1837.76387 1450.5669,1842.92745 C1450.5669,1847.93457 1461.56973,1850.93883 1467.07115,1851.43954 C1469.80186,1851.43954 1488.65932,1849.61175 1507.02993,1848.80752 L1508.44181,1848.74772 C1513.14303,1848.55545 1517.78422,1848.43528 1522.08533,1848.43528 C1527.36669,1848.43528 1533.08377,1848.58068 1538.8265,1848.80752 L1540.39303,1848.87135 C1560.23596,1849.70428 1579.94024,1851.43954 1582.60093,1851.43954 C1588.10235,1850.93883 1598.60505,1847.93457 1598.60505,1842.92745 C1598.60505,1837.76387 1590.80421,1834.96693 1582.35331,1832.09603 L1581.58345,1831.83477 L1580.42456,1831.44122 L1579.65097,1831.17715 L1578.49209,1830.77749 C1575.92126,1829.88375 1573.39022,1828.94927 1571.09796,1827.90612 C1554.09358,1820.39545 1547.59191,1804.37269 1547.59191,1785.84637 L1547.59191,1743.28592 C1547.59191,1732.27027 1551.09281,1718.25036 1561.59551,1718.25036 C1582.60093,1718.25036 1597.10467,1724.7596 1603.10621,1734.77383 C1615.70242,1755.87278 1634.95106,1783.33888 1655.28966,1807.37656 C1676.94307,1832.96818 1700.98144,1856.44666 1717.98582,1870.96728 C1734.9902,1885.48791 1759.99665,1894 1780.0018,1894 Z M1568.09719,1700.22475 C1562.59577,1700.22475 1556.59423,1697.72119 1552.59319,1692.21337 C1550.59268,1689.2091 1547.59191,1683.20057 1547.59191,1670.18208 L1547.59191,1590.56899 C1547.59191,1581.05548 1558.59474,1573.54481 1572.59835,1573.54481 C1606.10699,1573.54481 1635.61459,1597.07824 1635.61459,1630.62589 C1635.61459,1656.66287 1624.61176,1673.68706 1605.10673,1690.21053 C1600.60557,1695.21764 1583.10106,1700.22475 1568.09719,1700.22475 Z M1945.69451,1853.9431 C2053.22222,1853.9431 2101.73473,1777.33428 2101.73473,1690.71124 C2101.73473,1605.59033 2018.71333,1551.0128 1934.69167,1551.0128 C1903.68368,1551.0128 1866.67414,1555.01849 1835.66615,1555.01849 C1820.66228,1555.01849 1811.15984,1554.51778 1795.65584,1554.51778 C1785.15313,1554.51778 1778.15133,1557.52205 1778.15133,1563.53058 C1778.15133,1568.03698 1781.65223,1570.54054 1786.15339,1572.04267 C1814.66074,1580.55477 1827.16396,1580.55477 1827.16396,1609.09531 L1827.16396,1785.84637 C1827.16396,1804.37269 1820.16216,1820.39545 1803.6579,1827.90612 C1801.36564,1828.94927 1798.83461,1829.88375 1796.26378,1830.77749 L1795.10489,1831.17715 L1794.3313,1831.44122 L1793.17242,1831.83477 L1792.40256,1832.09603 C1783.95165,1834.96693 1776.15081,1837.76387 1776.15081,1842.92745 C1776.15081,1848.43528 1787.15365,1850.93883 1792.65507,1851.43954 C1795.38577,1851.43954 1813.93895,1849.61175 1832.88769,1848.80752 L1834.34581,1848.74772 C1839.20706,1848.55545 1844.06832,1848.43528 1848.6695,1848.43528 C1871.67543,1848.43528 1898.18226,1853.9431 1945.69451,1853.9431 Z M1954.69683,1831.4111 C1910.68549,1831.4111 1874.67621,1819.89474 1874.67621,1766.81935 L1874.67621,1589.56757 C1874.67621,1578.55192 1896.68188,1573.54481 1918.18742,1573.54481 C1989.20572,1573.54481 2045.72029,1627.62162 2045.72029,1700.72546 C2045.72029,1764.31579 2014.21217,1831.4111 1954.69683,1831.4111 Z M2184.19207,1849.03549 L2185.65836,1849.00609 C2188.09698,1848.96102 2190.50761,1848.93599 2192.85821,1848.93599 C2209.82258,1848.93599 2230.62795,1849.19235 2251.68528,1849.54101 L2255.6356,1849.60742 L2259.58658,1849.67576 C2301.71507,1850.41409 2343.05692,1851.43954 2354.89997,1851.43954 C2363.40217,1851.43954 2364.40242,1849.4367 2368.40345,1841.92603 C2372.40449,1835.41679 2387.40835,1798.36415 2387.40835,1784.34424 C2387.40835,1776.83357 2385.40784,1771.82646 2380.40655,1771.82646 C2375.90539,1771.82646 2369.40371,1775.83215 2366.90307,1781.33997 C2352.39933,1811.88336 2345.89765,1827.90612 2307.38773,1827.90612 L2252.87368,1827.90612 C2228.86749,1827.90612 2218.36478,1806.37553 2218.36478,1780.33855 L2218.36478,1724.25889 C2218.36478,1714.74538 2220.86543,1712.24182 2230.36788,1712.24182 L2282.88141,1712.24182 C2292.60034,1712.24182 2296.3235,1716.52949 2299.59923,1721.5339 L2299.91503,1722.02032 C2300.07241,1722.26452 2300.22917,1722.51014 2300.38592,1722.75676 C2303.3867,1727.76387 2309.88837,1741.78378 2316.39005,1741.78378 C2321.39134,1741.78378 2322.89172,1733.7724 2322.89172,1728.76529 C2322.89172,1723.25747 2322.3916,1707.73542 2322.3916,1700.22475 C2322.3916,1697.266 2322.70205,1692.75316 2323.07836,1688.12495 L2323.16626,1687.0555 L2323.25583,1685.98589 C2323.79692,1679.57559 2324.39211,1673.36842 2324.39211,1671.1835 C2324.39211,1665.17496 2323.39185,1661.16927 2318.89069,1661.16927 C2315.15759,1661.16927 2311.88506,1664.62763 2308.44804,1668.41535 L2307.9039,1669.0157 L2307.35647,1669.61878 C2306.07489,1671.02703 2304.76205,1672.43528 2303.3867,1673.68706 C2294.38438,1682.19915 2288.88296,1687.70697 2272.87883,1687.70697 L2229.86775,1687.70697 C2222.86594,1687.70697 2218.36478,1684.20199 2218.36478,1672.18492 L2218.36478,1588.06543 C2218.36478,1581.55619 2220.3653,1577.5505 2233.86878,1577.5505 L2293.38412,1577.5505 C2317.39031,1577.5505 2329.89353,1585.56188 2333.89456,1594.07397 C2338.39572,1604.08819 2345.89765,1613.101 2351.8992,1613.101 C2357.90075,1613.101 2359.90126,1606.09104 2359.90126,1600.0825 C2359.90126,1597.29765 2359.26197,1588.8805 2358.37128,1580.20303 L2358.25107,1579.04496 C2358.21052,1578.65874 2358.16951,1578.27248 2358.12808,1577.88664 L2358.00251,1576.73089 C2357.19958,1569.42527 2356.25426,1562.44477 2355.4001,1559.02418 C2354.39985,1554.51778 2350.39881,1552.01422 2342.39675,1552.01422 C2336.3652,1552.01422 2321.12882,1553.13807 2305.412,1553.87981 L2304.00347,1553.94517 C2303.0639,1553.98801 2302.12355,1554.02933 2301.18427,1554.06881 L2299.77639,1554.1266 C2298.83865,1554.16415 2297.90291,1554.1997 2296.97103,1554.23293 L2295.57632,1554.28099 C2291.40229,1554.4197 2287.32516,1554.50811 2283.5141,1554.51703 L2139.34442,1554.51778 C2128.84171,1554.51778 2121.83991,1557.52205 2121.83991,1563.53058 C2121.83991,1568.03698 2125.34081,1570.54054 2129.84197,1572.04267 C2158.34932,1580.05405 2170.85254,1580.55477 2170.85254,1609.09531 L2170.85254,1785.84637 C2170.85254,1804.37269 2164.35086,1820.39545 2147.34648,1827.90612 C2145.05422,1828.94927 2142.52319,1829.88375 2139.95236,1830.77749 L2138.79347,1831.17715 L2138.01988,1831.44122 L2136.861,1831.83477 L2136.09114,1832.09603 C2127.64023,1834.96693 2119.83939,1837.76387 2119.83939,1842.92745 C2119.83939,1847.93457 2130.84223,1850.93883 2136.34365,1851.43954 C2139.42444,1851.43954 2162.64482,1849.50079 2184.19207,1849.03549 Z M2695.48775,1849.93741 C2695.48775,1845.15789 2695.30023,1841.56745 2695.05776,1837.88281 L2695.01569,1837.24999 C2694.58292,1830.80213 2694.00631,1823.84542 2693.98782,1809.58628 L2693.98737,1609.09531 C2693.98737,1580.05405 2706.99072,1580.05405 2735.49807,1572.04267 C2739.99923,1570.54054 2743,1568.03698 2743,1563.53058 C2743,1557.52205 2732.99742,1554.51778 2725.49549,1554.51778 C2708.49111,1554.51778 2697.9884,1557.02134 2680.48389,1557.02134 C2662.47925,1557.02134 2654.47718,1554.51778 2634.97216,1554.51778 C2627.47022,1554.51778 2617.46765,1557.52205 2617.46765,1563.53058 C2617.46765,1568.03698 2620.96855,1570.54054 2625.46971,1572.04267 C2653.97706,1580.05405 2666.48028,1580.05405 2666.48028,1609.09531 L2666.48028,1731.26885 C2666.48028,1761.31152 2665.98015,1766.31863 2661.97912,1766.31863 C2657.97809,1766.31863 2651.97654,1761.31152 2618.4679,1723.75818 L2485.93375,1575.04694 C2480.93246,1569.53912 2470.42975,1557.02134 2459.42691,1557.02134 L2410.91441,1557.02134 C2406.41325,1557.02134 2403.41248,1558.52347 2403.41248,1562.52916 C2403.41248,1567.53627 2413.41506,1576.54908 2426.41841,1591.0697 L2444.92318,1611.59886 C2450.42459,1618.10811 2451.92498,1631.1266 2451.92498,1655.16074 L2451.92498,1785.84637 C2451.92498,1804.8734 2445.4233,1820.39545 2428.41892,1827.90612 C2426.12666,1828.94927 2423.59563,1829.88375 2421.0248,1830.77749 L2419.86591,1831.17715 L2419.09232,1831.44122 L2417.93344,1831.83477 L2417.16358,1832.09603 C2408.71267,1834.96693 2400.91183,1837.76387 2400.91183,1842.92745 C2400.91183,1847.93457 2411.91467,1850.93883 2417.41609,1851.43954 C2420.91699,1851.43954 2439.92189,1848.43528 2463.42795,1848.43528 C2487.43413,1848.43528 2509.4398,1851.43954 2512.94071,1851.43954 C2518.44212,1850.93883 2528.94483,1847.93457 2528.94483,1842.92745 C2528.94483,1837.76387 2521.14399,1834.96693 2512.69308,1832.09603 L2511.92323,1831.83477 L2510.76434,1831.44122 L2509.99075,1831.17715 L2508.83186,1830.77749 C2506.26103,1829.88375 2503.73,1828.94927 2501.43774,1827.90612 C2484.43336,1820.39545 2477.93168,1804.8734 2477.93168,1785.84637 L2477.9323,1682.60362 C2477.95269,1656.88599 2478.49183,1650.15363 2481.43259,1650.15363 C2483.93323,1650.15363 2487.93426,1653.15789 2495.93632,1662.1707 L2642.97422,1825.90327 C2661.97912,1846.93314 2679.98376,1855.94595 2685.48518,1855.94595 C2690.48647,1855.94595 2695.48775,1854.94452 2695.48775,1849.93741 Z" id="GARDEN" fill="#A59E8C" fill-rule="nonzero"></path>
        <ellipse id="Oval" stroke="#96A097" stroke-width="40" cx="1719" cy="1114" rx="1690" ry="1085"></ellipse>
        <g id="Group-2" transform="translate(1648.197535, 290.347962) scale(-1, 1) rotate(6.000000) translate(-1648.197535, -290.347962) translate(1481.697535, 188.847962)" fill="#66746C">
            <path d="M0,105.245989 C20.5197024,95.44223 53.1387939,95.7281687 71.2231551,105.245989 C89.2088396,114.711875 104.908162,130.310789 112,152.040761 C60.4524883,173.388084 23.9959862,149.778382 0,105.245989 Z" id="Path-2"></path>
            <path d="M162.952904,64.3106728 C195.338884,48.8750306 246.824164,49.3315036 275.369898,64.3241238 C303.759873,79.2349374 328.542263,103.80396 339.739951,138.026897 C258.382563,171.636142 200.836008,134.447353 162.952904,64.3106728 Z" id="Path-2-Copy" transform="translate(251.346427, 101.730393) rotate(115.000000) translate(-251.346427, -101.730393) "></path>
            <polygon id="Path-3" points="74 12 141.26634 12 166 189 149.49075 189"></polygon>
        </g>
    </g>
</svg>