<?xml version="1.0" encoding="UTF-8"?>
<svg width="3420px" height="2210px" viewBox="0 0 3420 2210" version="1.1" xmlns="http://www.w3.org/2000/svg" xmlns:xlink="http://www.w3.org/1999/xlink">
    <title>Artboard</title>
    <g id="Artboard" stroke="none" stroke-width="1" fill="none" fill-rule="evenodd">
        <text id="BON" font-family="EBGaramondSC12-Regular, EB Garamond SC" font-size="800" font-weight="normal" fill="#979797">
            <tspan x="878.32" y="876">B</tspan>
            <tspan x="1340.72" y="876" letter-spacing="-29.44">O</tspan>
            <tspan x="1921.68" y="876">N</tspan>
        </text>
        <text id="VIVANT" font-family="EBGaramondSC12-Regular, EB Garamond SC" font-size="800" font-weight="normal" letter-spacing="16.32" fill="#979797">
            <tspan x="284.36" y="1454">V</tspan>
            <tspan x="838.28" y="1454">I</tspan>
            <tspan x="1110.28" y="1454" letter-spacing="-69.6">V</tspan>
            <tspan x="1458.28" y="1454" letter-spacing="1.76">A</tspan>
            <tspan x="2013.64" y="1454">NT</tspan>
        </text>
        <path d="M964.75,1808 C1016.25,1808 1110.75,1792 1110.75,1780.5 C1110.75,1776 1097.25,1769.5 1097.25,1758 L1097.25,1705.5 C1097.25,1699.5 1112.75,1688 1119.75,1685 C1126.25,1682.5 1131.75,1676.5 1131.75,1673.5 C1131.75,1667.5 1128.25,1663.5 1121.75,1663.5 C1109.25,1663.5 1094.75,1665.5 1078.25,1665.5 C1070.18814,1665.5 1057.51602,1665.05022 1045.03285,1664.57725 L1043.40608,1664.51546 C1030.13596,1664.01036 1017.31701,1663.5 1010.75,1663.5 C1005.75,1663.5 1000.25,1666 1000.25,1671.5 C1000.25,1679 1008.75,1680.5 1023.75,1686 C1034.75,1690 1050.75,1700.5 1050.75,1706.5 L1050.75,1767 C1050.75,1775.5 1012.75,1786 986.25,1786 C914.25,1786 865.75,1717 865.75,1644.5 C865.75,1576.5 912.75,1514.5 979.25,1514.5 C1018.25,1514.5 1055.75,1527 1074.25,1562 C1081.25,1575.5 1086.75,1582 1090.75,1582 C1095.25,1582 1098.75,1579 1098.75,1574.5 C1098.75,1569.23118 1098.18346,1562.05029 1097.3702,1554.743 L1097.22843,1553.48942 L1097.22843,1553.48942 L1097.08218,1552.23536 C1095.74688,1540.95265 1093.91129,1529.85484 1092.75,1525.5 C1091.25,1520 1089.75,1510.5 1084.25,1509 C1050.75,1500 1042.75,1492 996.25,1492 C895.25,1492 809.75,1562 809.75,1662 C809.75,1741.5 885.25,1808 964.75,1808 Z M1384.15,1794 C1400.65,1794 1418.65,1797 1430.15,1797 C1439.65,1797 1444.65,1794.5 1444.65,1789 C1444.65,1784 1440.15,1779 1424.65,1773.5 C1400.15,1764.5 1394.65,1751 1380.15,1710.5 L1314.15,1524 C1307.15,1504.5 1304.15,1488 1295.65,1488 C1292.65,1488 1283.65,1502 1274.15,1503 C1268.65,1503.5 1268.65,1510 1260.15,1531.5 L1183.65,1743 C1176.15,1763.5 1176.65,1766 1160.15,1773.5 C1157.85833,1774.54167 1155.32795,1775.47483 1152.75778,1776.3673 L1151.59919,1776.76639 L1151.59919,1776.76639 L1150.82581,1777.03008 L1150.82581,1777.03008 L1149.66722,1777.42307 L1149.66722,1777.42307 L1148.89756,1777.68396 C1140.44883,1780.55078 1132.65,1783.34375 1132.65,1788.5 C1132.65,1794 1139.65,1797 1149.15,1797 C1156.65,1797 1168.15,1794 1180.65,1794 C1190.15,1794 1212.15,1797 1221.65,1797 C1234.15,1797 1239.15,1794 1239.15,1788.5 C1239.15,1783.5 1233.65,1778 1220.65,1774.5 C1206.15,1770.5 1206.65,1762.5 1209.65,1753.5 L1228.65,1699 C1230.65,1694 1234.15,1693.5 1236.65,1693.5 L1320.15,1693.5 C1324.15,1693.5 1326.65,1695 1328.15,1699.5 L1342.65,1747 L1342.79806,1747.51118 C1342.89538,1747.85275 1342.98974,1748.19586 1343.08002,1748.54037 L1343.21224,1749.05818 C1345.1884,1757.0136 1344.71,1765.68 1328.15,1773.5 C1326.18158,1774.39474 1324.05305,1775.20942 1321.88474,1775.98702 L1321.118,1776.26 C1320.862,1776.35053 1320.60565,1776.44061 1320.34913,1776.53032 L1319.57931,1776.7984 L1319.57931,1776.7984 L1318.80972,1777.06466 C1318.55335,1777.15316 1318.29722,1777.24142 1318.04152,1777.32952 L1317.2759,1777.5934 C1308.87255,1780.49224 1301.15,1783.28947 1301.15,1788.5 C1301.15,1794 1310.65,1797 1317.15,1797 C1332.15,1797 1351.15,1794 1384.15,1794 Z M1307.44715,1670.5 L1246.15,1670.5 C1237.15,1670.5 1238.65,1668 1241.65,1660 L1276.65,1560.5 C1278.65,1555.5 1280.65,1554 1282.15,1559 L1312.65,1652.5 C1317.6,1668.34 1317.15945,1670.4586 1307.44715,1670.5 L1307.44715,1670.5 Z M1786.5,1839.5 C1804,1839.5 1820,1834 1820,1825 C1820,1821 1817,1817 1811.5,1816.5 C1800.5,1815.5 1793,1815.5 1779.5,1807.5 C1766,1799.5 1747.9253,1782.10959 1721.5,1754 C1695.0747,1725.89041 1670.09573,1693.03139 1656.65,1673 C1650.15,1663.5 1644.15,1652.5 1644.15,1648 C1644.15,1643.5 1646.15,1644 1652.65,1639 C1676.15,1622 1692.15,1601 1692.15,1569 C1692.15,1518.5 1636.15,1497.5 1585.65,1497.5 C1541.15,1497.5 1520.65,1499 1476.65,1502.5 C1466.15,1503 1459.15,1505.5 1459.15,1511.5 C1459.15,1516 1462.65,1518.5 1467.15,1520 C1495.65,1528 1508.15,1528.5 1508.15,1557 L1508.15,1731.5 C1508.15,1750 1501.65,1766 1484.65,1773.5 C1482.35833,1774.54167 1479.82795,1775.47483 1477.25778,1776.3673 L1476.09919,1776.76639 L1475.32581,1777.03008 L1474.16722,1777.42307 L1473.39756,1777.68396 C1464.94883,1780.55078 1457.15,1783.34375 1457.15,1788.5 C1457.15,1793.5 1468.15,1796.5 1473.65,1797 C1476.38,1797 1495.2326,1795.1748 1513.59848,1794.37171 L1515.01,1794.312 C1519.71,1794.12 1524.35,1794 1528.65,1794 C1533.93,1794 1539.6456,1794.1452 1545.38685,1794.37171 L1546.95298,1794.43546 C1566.7908,1795.2672 1586.49,1797 1589.15,1797 C1594.65,1796.5 1605.15,1793.5 1605.15,1788.5 C1605.15,1783.34375 1597.35117,1780.55078 1588.90244,1777.68396 L1588.13278,1777.42307 L1586.97419,1777.03008 L1586.20081,1776.76639 L1585.04222,1776.3673 C1582.47205,1775.47483 1579.94167,1774.54167 1577.65,1773.5 C1560.65,1766 1554.15,1750 1554.15,1731.5 L1554.15,1689 C1554.15,1678 1557.65,1664 1568.15,1664 C1589.15,1664 1603.65,1670.5 1609.65,1680.5 C1622.24296,1701.56898 1641.48664,1728.99607 1661.82,1752.9996 C1683.46783,1778.55488 1707.5,1802 1724.5,1816.5 C1741.5,1831 1766.5,1839.5 1786.5,1839.5 Z M1574.65,1646 C1569.15,1646 1563.15,1643.5 1559.15,1638 C1557.15,1635 1554.15,1629 1554.15,1616 L1554.15,1536.5 C1554.15,1527 1565.15,1519.5 1579.15,1519.5 C1612.65,1519.5 1642.15,1543 1642.15,1576.5 C1642.15,1602.5 1631.15,1619.5 1611.65,1636 C1607.15,1641 1589.65,1646 1574.65,1646 Z M1952.15,1799.5 C2059.65,1799.5 2108.15,1723 2108.15,1636.5 C2108.15,1551.5 2025.15,1497 1941.15,1497 C1910.15,1497 1873.15,1501 1842.15,1501 C1827.15,1501 1817.65,1500.5 1802.15,1500.5 C1791.65,1500.5 1784.65,1503.5 1784.65,1509.5 C1784.65,1514 1788.15,1516.5 1792.65,1518 C1821.15,1526.5 1833.65,1526.5 1833.65,1555 L1833.65,1731.5 C1833.65,1750 1826.65,1766 1810.15,1773.5 C1807.85833,1774.54167 1805.32795,1775.47483 1802.75778,1776.3673 L1801.59919,1776.76639 L1801.59919,1776.76639 L1800.82581,1777.03008 L1800.82581,1777.03008 L1799.66722,1777.42307 L1799.66722,1777.42307 L1798.89756,1777.68396 C1790.44883,1780.55078 1782.65,1783.34375 1782.65,1788.5 C1782.65,1794 1793.65,1796.5 1799.15,1797 C1801.88,1797 1820.4284,1795.1748 1839.37226,1794.37171 L1840.83,1794.312 C1845.69,1794.12 1850.55,1794 1855.15,1794 C1878.15,1794 1904.65,1799.5 1952.15,1799.5 Z M1961.15,1777 C1917.15,1777 1881.15,1765.5 1881.15,1712.5 L1881.15,1535.5 C1881.15,1524.5 1903.15,1519.5 1924.65,1519.5 C1995.65,1519.5 2052.15,1573.5 2052.15,1646.5 C2052.15,1710 2020.65,1777 1961.15,1777 Z M2190.5861,1794.59936 L2192.052,1794.57 C2194.49,1794.525 2196.9,1794.5 2199.25,1794.5 C2216.21,1794.5 2237.01,1794.756 2258.0619,1795.10416 L2262.01121,1795.17048 L2262.01121,1795.17048 L2265.96117,1795.23872 C2308.0788,1795.976 2349.41,1797 2361.25,1797 C2369.75,1797 2370.75,1795 2374.75,1787.5 C2378.75,1781 2393.75,1744 2393.75,1730 C2393.75,1722.5 2391.75,1717.5 2386.75,1717.5 C2382.25,1717.5 2375.75,1721.5 2373.25,1727 C2358.75,1757.5 2352.25,1773.5 2313.75,1773.5 L2259.25,1773.5 C2235.25,1773.5 2224.75,1752 2224.75,1726 L2224.75,1670 C2224.75,1660.5 2227.25,1658 2236.75,1658 L2289.25,1658 C2298.96642,1658 2302.68863,1662.28158 2305.96351,1667.27888 L2306.27922,1667.76461 C2306.43657,1668.00847 2306.59328,1668.25373 2306.75,1668.5 C2309.75,1673.5 2316.25,1687.5 2322.75,1687.5 C2327.75,1687.5 2329.25,1679.5 2329.25,1674.5 C2329.25,1669 2328.75,1653.5 2328.75,1646 C2328.75,1643.04545 2329.06038,1638.53903 2329.43659,1633.91738 L2329.52447,1632.84946 L2329.52447,1632.84946 L2329.61401,1631.78137 C2330.15496,1625.38017 2330.75,1619.18182 2330.75,1617 C2330.75,1611 2329.75,1607 2325.25,1607 C2321.51786,1607 2318.24617,1610.45344 2314.81004,1614.23579 L2314.26603,1614.83528 L2314.26603,1614.83528 L2313.71875,1615.4375 C2312.4375,1616.84375 2311.125,1618.25 2309.75,1619.5 C2300.75,1628 2295.25,1633.5 2279.25,1633.5 L2236.25,1633.5 C2229.25,1633.5 2224.75,1630 2224.75,1618 L2224.75,1534 C2224.75,1527.5 2226.75,1523.5 2240.25,1523.5 L2299.75,1523.5 C2323.75,1523.5 2336.25,1531.5 2340.25,1540 C2344.75,1550 2352.25,1559 2358.25,1559 C2364.25,1559 2366.25,1552 2366.25,1546 C2366.25,1543.2191 2365.61088,1534.81391 2364.72041,1526.14877 L2364.60023,1524.99234 C2364.55969,1524.60667 2364.51869,1524.22095 2364.47727,1523.83567 L2364.35174,1522.68156 C2363.54902,1515.38631 2362.60393,1508.41573 2361.75,1505 C2360.75,1500.5 2356.75,1498 2348.75,1498 C2342.72,1498 2327.48755,1499.12225 2311.77478,1499.86294 L2310.36661,1499.92821 C2309.42729,1499.97098 2308.48718,1500.01224 2307.54814,1500.05166 L2306.14062,1500.10938 C2305.20312,1500.14687 2304.26762,1500.18237 2303.33598,1500.21555 L2301.94164,1500.26354 C2297.76868,1500.40206 2293.6926,1500.49035 2289.88252,1500.49926 L2145.75,1500.5 C2135.25,1500.5 2128.25,1503.5 2128.25,1509.5 C2128.25,1514 2131.75,1516.5 2136.25,1518 C2164.75,1526 2177.25,1526.5 2177.25,1555 L2177.25,1731.5 C2177.25,1750 2170.75,1766 2153.75,1773.5 C2151.45833,1774.54167 2148.92795,1775.47483 2146.35778,1776.3673 L2145.19919,1776.76639 L2145.19919,1776.76639 L2144.42581,1777.03008 L2144.42581,1777.03008 L2143.26722,1777.42307 L2143.26722,1777.42307 L2142.49756,1777.68396 C2134.04883,1780.55078 2126.25,1783.34375 2126.25,1788.5 C2126.25,1793.5 2137.25,1796.5 2142.75,1797 C2145.83,1797 2169.0444,1795.064 2190.5861,1794.59936 L2190.5861,1794.59936 Z M2701.75,1795.5 C2701.75,1790.72727 2701.56252,1787.14192 2701.32012,1783.46252 L2701.27805,1782.8306 C2700.8454,1776.3919 2700.26894,1769.44507 2700.25046,1755.20618 L2700.25,1555 C2700.25,1526 2713.25,1526 2741.75,1518 C2746.25,1516.5 2749.25,1514 2749.25,1509.5 C2749.25,1503.5 2739.25,1500.5 2731.75,1500.5 C2714.75,1500.5 2704.25,1503 2686.75,1503 C2668.75,1503 2660.75,1500.5 2641.25,1500.5 C2633.75,1500.5 2623.75,1503.5 2623.75,1509.5 C2623.75,1514 2627.25,1516.5 2631.75,1518 C2660.25,1526 2672.75,1526 2672.75,1555 L2672.75,1677 C2672.75,1707 2672.25,1712 2668.25,1712 C2664.25,1712 2658.25,1707 2624.75,1669.5 L2492.25,1521 C2487.25,1515.5 2476.75,1503 2465.75,1503 L2417.25,1503 C2412.75,1503 2409.75,1504.5 2409.75,1508.5 C2409.75,1513.5 2419.75,1522.5 2432.75,1537 L2451.25,1557.5 C2456.75,1564 2458.25,1577 2458.25,1601 L2458.25,1731.5 C2458.25,1750.5 2451.75,1766 2434.75,1773.5 C2432.45833,1774.54167 2429.92795,1775.47483 2427.35778,1776.3673 L2426.19919,1776.76639 L2426.19919,1776.76639 L2425.42581,1777.03008 L2425.42581,1777.03008 L2424.26722,1777.42307 L2424.26722,1777.42307 L2423.49756,1777.68396 C2415.04883,1780.55078 2407.25,1783.34375 2407.25,1788.5 C2407.25,1793.5 2418.25,1796.5 2423.75,1797 C2427.25,1797 2446.25,1794 2469.75,1794 C2493.75,1794 2515.75,1797 2519.25,1797 C2524.75,1796.5 2535.25,1793.5 2535.25,1788.5 C2535.25,1783.34375 2527.45117,1780.55078 2519.00244,1777.68396 L2518.23278,1777.42307 L2518.23278,1777.42307 L2517.07419,1777.03008 L2517.07419,1777.03008 L2516.30081,1776.76639 L2516.30081,1776.76639 L2515.14222,1776.3673 C2512.57205,1775.47483 2510.04167,1774.54167 2507.75,1773.5 C2490.75,1766 2484.25,1750.5 2484.25,1731.5 L2484.25062,1628.4039 C2484.271,1602.7228 2484.81,1596 2487.75,1596 C2490.25,1596 2494.25,1599 2502.25,1608 L2649.25,1771.5 C2668.25,1792.5 2686.25,1801.5 2691.75,1801.5 C2696.75,1801.5 2701.75,1800.5 2701.75,1795.5 Z" id="GARDEN" fill="#979797" fill-rule="nonzero"></path>
        <ellipse id="Oval" stroke="#979797" stroke-width="35" cx="1708" cy="1108" rx="1689.75653" ry="1083.5"></ellipse>
    </g>
</svg>